<svg xmlns:dc="http://purl.org/dc/elements/1.1/" xmlns:cc="http://creativecommons.org/ns#" xmlns:rdf="http://www.w3.org/1999/02/22-rdf-syntax-ns#" xmlns:svg="http://www.w3.org/2000/svg" xmlns="http://www.w3.org/2000/svg" viewBox="0 0 480 480" fill="none"><metadata><rdf:RDF><cc:Work><dc:format>image/svg+xml</dc:format><dc:type rdf:resource="http://purl.org/dc/dcmitype/StillImage"/><dc:title>Custom Avatar</dc:title><dc:creator><cc:Agent><dc:title>Ashley Seo</dc:title></cc:Agent></dc:creator><dc:source>https://www.figma.com/community/file/881358461963645496</dc:source><cc:license rdf:resource="https://creativecommons.org/licenses/by/4.0/"/></cc:Work><cc:License rdf:about="https://creativecommons.org/licenses/by/4.0/"><cc:permits rdf:resource="https://creativecommons.org/ns#Reproduction"/><cc:permits rdf:resource="https://creativecommons.org/ns#Distribution"/><cc:permits rdf:resource="https://creativecommons.org/ns#DerivativeWorks"/><cc:requires rdf:resource="https://creativecommons.org/ns#Notice"/><cc:requires rdf:resource="https://creativecommons.org/ns#Attribution"/></cc:License></rdf:RDF></metadata><mask id="avatarsRadiusMask"><rect width="480" height="480" rx="0" ry="0" x="0" y="0" fill="#fff"/></mask><g mask="url(#avatarsRadiusMask)"><g transform="matrix(.85775 0 0 .85427 52 47)"><path d="M263.989 38.62s131.387 20.593 121.424 208.128c-.036.695 15.192 10.822 16.384 11.904 10.619 9.62 19.527 21.94 23.423 36.351 13.872 51.319-35.724 104.196-75.83 118.231-14.981 5.242-30.815 7.787-46.681 8.249-103.139 3.009-239.69-62.655-246.703-190.893a172.056 172.056 0 0 1-.195-13.802c.621-24.349 6.488-48.063 15.33-70.082-.004.001 57.398-142.617 192.848-108.085Z" fill="rgba(239, 204, 159, 1)"/><path d="M388.739 248.727c-1.423 3.492-2.844 7.955-3.241 10.507-1.694 10.947 2.045 22.252 8.54 30.378 6.168 7.716 14.976 12.72 23.506 14.607 2.88.637 6.367.964 9.416 1.067-3.204-31.703-28.973-50.725-38.221-56.559ZM203.534 332.051c24.406-5.26 39.558-31.017 33.844-57.531-5.714-26.514-30.13-43.744-54.535-38.484-24.405 5.259-39.558 31.016-33.844 57.53 5.714 26.514 30.13 43.744 54.535 38.485Z" fill="#DC2400" style="mix-blend-mode:multiply" opacity=".1"/><path opacity=".1" d="M323.014 257.889s20.842-19.864 36.977-1.188Z" fill="#000"/><g><path d="M128.679 356.869c-69.38 34.83-132.35-52.512-112.18-101.609 12.866-31.317 50.38-33.752 72.118-5.146 12.829 16.883 23.209 38.464 29.103 59.108" fill="rgba(239, 204, 159, 1)"/><path opacity=".1" d="M71.534 278.927c8.927 9.099 16.103 22.593 24.923 30.12-1.63-12.595-4.232-26.045-10.34-37.396-6.201-11.528-17.479-21.025-28.962-20.242-14.23.971-25.947 17.573-27.454 32.626.9-9.008 18.99-15.104 25.894-14.251 10.812 20.413 14.998 60.644 14.998 60.644 9.007-22.775 5.36-40.689.941-51.501Z" fill="#000"/></g></g><g transform="matrix(.85472 0 0 .855 19 -17)"><path d="M385.305 380.359c9.354.259 18.323-2.416 26.048-10.444 4.042-4.197 8.141-6.507 13.94-2.917 13.885 8.598 17.154 30.077 13.422 44.479-4.098 15.803-16.442 28.544-30.667 36.853-38.279 22.36-67.64 17.328-106.811 3.035-30.833-11.248-72.517-33.921-61.951-72.943 13.085-48.315 69.477-25.118 101.296-12.084 13.51 5.539 29.618 13.602 44.723 14.021Z" fill="#fff"/><mask id="mouthTeethSmile-a" style="mask-type:alpha" maskUnits="userSpaceOnUse" x="237" y="349" width="204" height="115"><path d="M385.305 380.359c9.354.259 18.323-2.416 26.048-10.444 4.042-4.197 8.141-6.507 13.94-2.917 13.885 8.598 17.154 30.077 13.422 44.479-4.098 15.803-16.442 28.544-30.667 36.853-38.279 22.36-67.64 17.328-106.811 3.035-30.833-11.248-72.517-33.921-61.951-72.943 13.085-48.315 69.477-25.118 101.296-12.084 13.51 5.539 29.618 13.602 44.723 14.021Z" fill="#fff"/></mask><g mask="url(#mouthTeethSmile-a)"><path fill-rule="evenodd" clip-rule="evenodd" d="m257.597 434.025 40.072-101.131 5.579 2.211-40.073 101.131-5.578-2.211Zm82.34 32.677 27.679-106.117 5.805 1.514-27.678 106.117-5.806-1.514Zm82.38-25.622-15.273-77.8 5.888-1.155 15.272 77.799-5.887 1.156Z" fill="#D1D3D4"/></g></g><g transform="matrix(.85472 0 0 .855 19 -17)"><path d="M342.942 294.416c-.028 14.765-9.33 26.753-28.656 24.303-13.912-3.083-21.268-8.824-21.238-24.309.032-16.225 7.727-26.989 21.342-29.163 20.886-3.334 28.581 14.403 28.552 29.169ZM419.173 290.886c-.019 11.773-4.834 24.417-17.16 22.966-10.344-1.218-12.986-16.241-12.974-23.637.021-12.937 5.877-25.159 14.423-25.179 9.191-.021 15.73 14.077 15.711 25.85Z" fill="#2A1200"/><path d="M402.178 273.964c.257-.995 1.631-1.076 1.915-.114l2.627 8.888a.945.945 0 0 0 1.06.668l5.024-.771c.82-.125 1.384.75.955 1.48l-4.184 7.115a1.026 1.026 0 0 0-.105.813l2.583 8.743c.295.997-.952 1.782-1.672 1.052l-3.651-3.701c-.408-.413-1.095-.362-1.477.11l-5.609 6.928c-.622.768-1.819.327-1.75-.645l.736-10.31a.973.973 0 0 0-.272-.754l-5.548-5.623c-.569-.577-.207-1.595.613-1.721l5.169-.792c.41-.063.75-.373.855-.781l2.731-10.585ZM318.019 272.679c.339-.828 1.511-.829 1.851-.002l4.736 11.519a.999.999 0 0 0 1.052.612l9.659-1.237c.915-.117 1.487.962.877 1.653l-7.205 8.167a.998.998 0 0 0-.175 1.041l4.462 10.852c.376.916-.663 1.763-1.484 1.21l-8.383-5.651a1 1 0 0 0-1.201.063l-11.529 9.659c-.701.587-1.757.004-1.633-.902l1.679-12.339a.999.999 0 0 0-.432-.964l-9.03-6.087c-.765-.515-.483-1.704.432-1.821l9.842-1.26a.999.999 0 0 0 .798-.614l5.684-13.899Z" fill="#fff"/><g fill="#71472D"><path d="M331.172 233.546c-13.289-3.949-28.483-.745-39.566 8.287-3.573 2.912-5.209 8.68-2.401 12.846 2.594 3.855 7.986 5.624 11.811 2.502a38.29 38.29 0 0 1 3.569-2.602c.385-.247 1.418-.641 1.777-1.032.184-.09.364-.18.551-.266a37.327 37.327 0 0 1 3.521-1.422 38.14 38.14 0 0 1 2.064-.644c.219-.06.438-.117.66-.173.59-.027 1.292-.254 1.837-.33a35.797 35.797 0 0 1 5.883-.327c.175.005.346.013.521.022.665.089 1.33.161 1.994.274 1.41.241 2.8.58 4.176.986 4.294 1.278 9.396-2.456 10.136-7.181.807-5.202-1.933-9.571-6.533-10.94ZM422.688 243.735c-6.462-5.448-14.625-8.054-22.584-7.432-2.148.168-4.362 1.554-5.632 3.328-1.252 1.747-1.993 4.467-1.581 6.733.429 2.352 1.5 4.726 3.397 6.191 1.923 1.485 4.053 2.205 6.386 2.025.382-.03.764-.015 1.149-.025a22.67 22.67 0 0 1 3.474.595 23.87 23.87 0 0 1 3.91 1.864c.427.314.87.606 1.28.951 1.77 1.49 4.21 2.261 6.386 2.025 2.083-.226 4.432-1.493 5.631-3.332 1.242-1.903 2.022-4.309 1.581-6.732-.439-2.416-1.524-4.614-3.397-6.191Z"/></g></g><g transform="matrix(.85472 0 0 .85667 18 -15)"><path d="M412.723 124.708c20.133-6.007 26.461 19.947 27.333 37.181.058 1.161.092 2.286.104 3.36.221 20.128-6.673 42.169-24.47 51.328-.226.118-4.084-4.079-6.399-6.598-.884-.962-1.543-1.679-1.689-1.818-7.367-6.987-15.384-13.185-23.811-18.572-26.269-16.795-55.864-24.44-86.257-22.549-36.206 2.254-75.793 11.839-103.068 36.737-26.832 24.494-43.372 66.485-42.479 106.709.024 1.052.119 2.723.236 4.784.564 9.919 1.644 28.896-2.223 31.73l-.604.302c-.42.32-1.127.863-2.381 1.848-3.084 2.259-6.571-3.874-11.292-12.175-5.659-9.953-13.091-23.022-23.723-28.475-8.667-4.833-30.6-9.1-49 10.5-2.07-9.402-3.027-16.062-3.47-21.608l-.048.108-.03-1.155a122.44 122.44 0 0 1-.28-6.923c-.018.162-.023.712-.023.712v-.129c-.002-.814 0-1.628.005-2.441-.005-1.019-.005-2.035-.005-3.064-.017-10.832.527-16.353 1.578-26.937l.058-.581c3.773-38.025 15.158-75.559 37.15-105.843 22.412-30.87 56.807-52.344 90.818-65.067a200.3 200.3 0 0 1 10.893-3.727c34.132-10.583 71.077-11.549 105.03-.308 23.276 7.703 44.637 20.907 64.545 36.233 1.34-1.796 2.926-3.442 4.845-4.788 8.319-5.827 21.036-2.091 25.698 7.318 1.682 3.392 3.025 6.828 3.948 10.274 2.379-3.001 5.48-5.314 9.011-6.366Z" fill="rgba(96, 93, 228, 1)"/><path d="M304.676 82.041c23.276 7.704 44.637 20.908 64.545 36.234 1.031-1.388 2.266-2.63 3.635-3.755-2.721 3.097-4.862 7.115-6.665 10.941-8.035-6.792-18.151-10.528-28.302-7.418-9.712 2.979-16.569 11.2-20.693 20.84-23.163-13.925-47.955-19.234-76.406-13.875-34.066 6.416-63.836 30.076-83.607 60.433-26.619 40.876-26.921 118.253-6.875 161.124-.484.458 0 0-3.293 2.585-6.782 4.969-15.515-30.65-35.015-40.65-8.667-4.833-30.6-9.1-49 10.5-3.851-17.5-3.851-25.5-3.851-34.5-.017-10.884.532-16.405 1.593-27.088l.043-.426c3.773-38.024 15.158-75.558 37.15-105.843 22.412-30.869 56.807-52.343 90.818-65.066a200.507 200.507 0 0 1 10.893-3.727c34.132-10.583 71.077-11.549 105.03-.309Z" fill="#000" fill-opacity=".05"/></g><g transform="matrix(.85472 0 0 .85667 14 -12)"/></g></svg>