<svg xmlns:dc="http://purl.org/dc/elements/1.1/" xmlns:cc="http://creativecommons.org/ns#" xmlns:rdf="http://www.w3.org/1999/02/22-rdf-syntax-ns#" xmlns:svg="http://www.w3.org/2000/svg" xmlns="http://www.w3.org/2000/svg" viewBox="0 0 480 480" fill="none"><metadata><rdf:RDF><cc:Work><dc:format>image/svg+xml</dc:format><dc:type rdf:resource="http://purl.org/dc/dcmitype/StillImage"/><dc:title>Custom Avatar</dc:title><dc:creator><cc:Agent><dc:title>Ashley Seo</dc:title></cc:Agent></dc:creator><dc:source>https://www.figma.com/community/file/881358461963645496</dc:source><cc:license rdf:resource="https://creativecommons.org/licenses/by/4.0/"/></cc:Work><cc:License rdf:about="https://creativecommons.org/licenses/by/4.0/"><cc:permits rdf:resource="https://creativecommons.org/ns#Reproduction"/><cc:permits rdf:resource="https://creativecommons.org/ns#Distribution"/><cc:permits rdf:resource="https://creativecommons.org/ns#DerivativeWorks"/><cc:requires rdf:resource="https://creativecommons.org/ns#Notice"/><cc:requires rdf:resource="https://creativecommons.org/ns#Attribution"/></cc:License></rdf:RDF></metadata><mask id="avatarsRadiusMask"><rect width="480" height="480" rx="0" ry="0" x="0" y="0" fill="#fff"/></mask><g mask="url(#avatarsRadiusMask)"><g transform="matrix(.85775 0 0 .85427 52 47)"><path d="M263.989 38.62s131.387 20.593 121.424 208.128c-.036.695 15.192 10.822 16.384 11.904 10.619 9.62 19.527 21.94 23.423 36.351 13.872 51.319-35.724 104.196-75.83 118.231-14.981 5.242-30.815 7.787-46.681 8.249-103.139 3.009-239.69-62.655-246.703-190.893a172.056 172.056 0 0 1-.195-13.802c.621-24.349 6.488-48.063 15.33-70.082-.004.001 57.398-142.617 192.848-108.085Z" fill="rgba(239, 204, 159, 1)"/><path d="M388.739 248.727c-1.423 3.492-2.844 7.955-3.241 10.507-1.694 10.947 2.045 22.252 8.54 30.378 6.168 7.716 14.976 12.72 23.506 14.607 2.88.637 6.367.964 9.416 1.067-3.204-31.703-28.973-50.725-38.221-56.559ZM203.534 332.051c24.406-5.26 39.558-31.017 33.844-57.531-5.714-26.514-30.13-43.744-54.535-38.484-24.405 5.259-39.558 31.016-33.844 57.53 5.714 26.514 30.13 43.744 54.535 38.485Z" fill="#DC2400" style="mix-blend-mode:multiply" opacity=".1"/><path opacity=".1" d="M323.014 257.889s20.842-19.864 36.977-1.188Z" fill="#000"/><g><path d="M128.679 356.869c-69.38 34.83-132.35-52.512-112.18-101.609 12.866-31.317 50.38-33.752 72.118-5.146 12.829 16.883 23.209 38.464 29.103 59.108" fill="rgba(239, 204, 159, 1)"/><path opacity=".1" d="M71.534 278.927c8.927 9.099 16.103 22.593 24.923 30.12-1.63-12.595-4.232-26.045-10.34-37.396-6.201-11.528-17.479-21.025-28.962-20.242-14.23.971-25.947 17.573-27.454 32.626.9-9.008 18.99-15.104 25.894-14.251 10.812 20.413 14.998 60.644 14.998 60.644 9.007-22.775 5.36-40.689.941-51.501Z" fill="#000"/></g></g><g transform="matrix(.85472 0 0 .855 19 -17)"><path d="M351.722 357.794c35.705 2.283 57.778 0 64.899 0 29.986-4.491 42.802 48.435 5.16 76.206-11.238 8.291-16.781 7-40.781 7-24.024 0-49.993 8.95-64.5 4.863-41.122-11.585-48.343-41.355-44.653-57.739 4.992-22.164 15.153-34.467 79.875-30.33Z" fill="#fff"/><mask id="mouthAwkwardSmile-a" style="mask-type:alpha" maskUnits="userSpaceOnUse" x="271" y="357" width="174" height="90"><path d="M351.722 357.794c35.705 2.283 57.778 0 64.899 0 29.986-4.491 42.802 48.435 5.16 76.206-11.238 8.291-16.781 7-40.781 7-24.024 0-49.993 8.95-64.5 4.863-41.122-11.585-48.343-41.355-44.653-57.739 4.992-22.164 15.153-34.467 79.875-30.33Z" fill="#fff"/></mask><g mask="url(#mouthAwkwardSmile-a)"><path fill-rule="evenodd" clip-rule="evenodd" d="m285.823 450.002 17.452-107.372 5.922.962-17.451 107.372-5.923-.962Zm77.403 14.257 4.276-109.584 5.996.234-4.277 109.584-5.995-.234Zm66.811-29.791-13.628-86.344 5.927-.935 13.627 86.343-5.926.936Z" fill="#D1D3D4"/></g></g><g transform="matrix(.85472 0 0 .855 19 -17)"><g fill="#2A1200"><path d="M401.884 284.77c3.898 1.79 9.27 3.915 14.555 5.154 1.59 3.122 2.498 6.841 2.489 10.269-.021 7.961-3.658 16.513-12.951 15.536-7.8-.82-9.785-10.978-9.772-15.979.016-6.111 2.179-11.988 5.679-14.98ZM296.2 292.531a30.443 30.443 0 0 0-.596 6.017c-.033 12.455 6.185 18.988 15.53 21.465 12.984 1.968 19.243-7.675 19.273-19.552.018-6.902-2.871-13.713-7.379-18.203-5.602 4.286-14.434 8.704-26.828 10.273Z"/></g><g fill="#71472D"><path d="M324.846 237.734c-13.715 2.017-26.145 11.324-32.392 24.184-2.014 4.146-1.067 10.067 3.235 12.662 3.977 2.403 9.612 1.736 11.766-2.707a38.274 38.274 0 0 1 2.14-3.864c.245-.386 1.016-1.177 1.177-1.684.128-.159.254-.317.387-.473a37.43 37.43 0 0 1 2.595-2.773 38.507 38.507 0 0 1 1.601-1.454c.173-.147.347-.29.525-.435.523-.272 1.065-.774 1.527-1.073a35.646 35.646 0 0 1 5.197-2.775c.161-.069.32-.134.483-.2.64-.199 1.274-.414 1.923-.591a36.248 36.248 0 0 1 4.203-.865c4.433-.651 7.487-6.186 6.167-10.783-1.46-5.057-5.785-7.866-10.534-7.169ZM425.206 260.439c-3.136-7.848-9.111-13.991-16.426-17.189-1.975-.862-4.58-.682-6.536.285-1.927.953-3.861 3.003-4.564 5.196-.729 2.277-.902 4.876.082 7.061.997 2.216 2.538 3.853 4.681 4.793.351.153.681.347 1.026.519a22.652 22.652 0 0 1 2.784 2.161 23.752 23.752 0 0 1 2.572 3.485c.229.478.482.944.682 1.441.861 2.148 2.65 3.977 4.681 4.793 1.944.781 4.613.769 6.536-.288 1.992-1.095 3.813-2.85 4.565-5.196.75-2.338.827-4.788-.083-7.061Z"/></g></g><g transform="matrix(.85472 0 0 .85667 18 -15)"><path d="M366.798 170.897c-7.948 7.153-16.754 17.58-26.503 29.123-16.324 19.33-35.29 41.787-57.295 57.237-28.246 19.831-60.5 30.384-86.539 35.362-9.592 11.139-13.383 22.797-16.372 31.99-3.214 9.884-5.501 16.918-13.076 17.391-8.889-20.605-25.302-54.216-71.013-39-38.504 12.817-40.38 56.31-28 78.5 6.984 12.363 35.289 40.086 81 34l29.5 25.5c-2.857 5.389-8.249 13.113-25.772 20.721-21.903 9.51-123.802.951-133.325-60.864-23.808-20.605-61.139-78.172-19.999-143.6 12.603-20.043 30.342-34.402 51.343-43.643-.256-8.192-.265-17.691.083-28.633 1.904-59.913 58.091-108.414 101.898-118.875 42.807-10.222 132.902-6.823 169.869 26.17C443.101 47.484 473.826 193.926 469.5 249.5c22.4 44 7 106.667-1 131.5-4-33.6-31.333-56-44-61.5 5.6-30.4-5-82-11-104-15.24-23.056-35.221-38.763-46.702-44.603Z" fill="rgba(113, 71, 45, 1)"/></g><g transform="matrix(.85472 0 0 .85667 14 -12)"/></g></svg>