<svg xmlns:dc="http://purl.org/dc/elements/1.1/" xmlns:cc="http://creativecommons.org/ns#" xmlns:rdf="http://www.w3.org/1999/02/22-rdf-syntax-ns#" xmlns:svg="http://www.w3.org/2000/svg" xmlns="http://www.w3.org/2000/svg" viewBox="0 0 280 280" fill="none"><metadata><rdf:RDF><cc:Work><dc:format>image/svg+xml</dc:format><dc:type rdf:resource="http://purl.org/dc/dcmitype/StillImage"/><dc:title>Avataaars</dc:title><dc:creator><cc:Agent><dc:title>Pablo Stanley</dc:title></cc:Agent></dc:creator><dc:source>https://avataaars.com/</dc:source><cc:license rdf:resource="https://avataaars.com/"/><dc:contributor><cc:Agent><dc:title>Florian Körner</dc:title></cc:Agent></dc:contributor></cc:Work></rdf:RDF></metadata><mask id="avatarsRadiusMask"><rect width="280" height="280" rx="0" ry="0" x="0" y="0" fill="#fff"/></mask><g mask="url(#avatarsRadiusMask)"><g transform="translate(40, 36)"><path d="M100 0C69.072 0 44 25.072 44 56v6.166c-5.675.952-10 5.888-10 11.834v14c0 6.052 4.48 11.058 10.305 11.881 2.067 19.806 14.458 36.541 31.695 44.73V163h-4c-39.764 0-72 32.236-72 72v9h200v-9c0-39.764-32.236-72-72-72h-4v-18.389c17.237-8.189 29.628-24.924 31.695-44.73C161.52 99.058 166 94.052 166 88V74c0-5.946-4.325-10.882-10-11.834V56c0-30.928-25.072-56-56-56z" fill="#FD9841"/><path d="M76 144.611v8A55.79 55.79 0 00100 158a55.789 55.789 0 0024-5.389v-8A55.789 55.789 0 01100 150a55.79 55.79 0 01-24-5.389z" fill="#000" fill-opacity=".1"/></g><g transform="translate(8, 170)"><path d="M108 14.694C92.484 18.38 80.895 25.529 77.228 34.142 50.72 44.765 32 70.696 32 101v9h200v-9.001c0-30.303-18.721-56.234-45.228-66.858-3.667-8.613-15.256-15.761-30.772-19.447V32c0 13.255-10.745 24-24 24s-24-10.745-24-24V14.694z" fill="#FFFFB1"/><path d="M102 63.337a67.11 67.11 0 01-7-2.817V110h7V63.337zm60 0a67.039 67.039 0 007-2.817V98.5a3.5 3.5 0 11-7 0V63.337z" fill="#F4F4F4"/><path d="M187.62 34.488a71.788 71.788 0 0110.832 5.628C197.107 55.615 167.87 68 132 68c30.928 0 56-13.431 56-30 0-1.188-.129-2.36-.38-3.512zm-111.24 0A16.477 16.477 0 0076 38c0 16.569 25.072 30 56 30-35.87 0-65.107-12.385-66.452-27.884a71.783 71.783 0 0110.832-5.628z" fill="#000" fill-opacity=".16"/></g><g transform="translate(86, 134)"><path fill-rule="evenodd" clip-rule="evenodd" d="M34.008 38.864C35.128 24.876 38.234 13.008 53.996 13c15.762-.008 18.92 11.943 19.998 25.994.087 1.13-.82 2.006-1.957 2.006-6.687 0-9.367-1.994-18.048-2-8.68-.006-13.232 2-17.896 2-1.144 0-2.197-.737-2.085-2.136z" fill="#000" fill-opacity=".7"/><path d="M67.024 17.573A4.982 4.982 0 0165 18H44a4.977 4.977 0 01-2.672-.773c2.897-2.66 6.95-4.224 12.668-4.227 5.95-.003 10.104 1.698 13.028 4.573z" fill="#fff"/><path d="M69.804 40.922c-2.05-.146-3.757-.477-5.547-.824C61.53 39.57 58.61 39.003 53.99 39c-5.013-.004-8.65.664-11.725 1.229-1.45.266-2.774.509-4.06.648C39.195 35.818 43.652 32 49 32c1.8 0 3.5.433 5 1.2 1.5-.767 3.2-1.2 5-1.2 5.365 0 9.832 3.84 10.804 8.922z" fill="#FF4F6D"/></g><g transform="translate(112, 122)"><path fill-rule="evenodd" clip-rule="evenodd" d="M16 8c0 4.418 5.373 8 12 8s12-3.582 12-8" fill="#000" fill-opacity=".16"/></g><g transform="translate(84, 90)"><path d="M44 22c0 7.732-6.268 14-14 14s-14-6.268-14-14S22.268 8 30 8s14 6.268 14 14zm52 0c0 7.732-6.268 14-14 14s-14-6.268-14-14S74.268 8 82 8s14 6.268 14 14z" fill="#fff"/><path d="M36 14a6 6 0 11-12 0 6 6 0 0112 0zm52 0a6 6 0 11-12 0 6 6 0 0112 0z" fill="#000" fill-opacity=".7"/></g><g transform="translate(84, 82)"><path d="M15.976 17.128C17.47 7.605 30.059 1.108 39.164 5.3a2 2 0 101.672-3.633c-11.487-5.29-26.9 2.664-28.812 14.84a2 2 0 003.952.62zm80.048 0C94.53 7.605 81.942 1.108 72.837 5.3a2 2 0 11-1.673-3.633c11.487-5.29 26.9 2.664 28.812 14.84a2 2 0 01-3.952.62z" fill="#000" fill-opacity=".6"/></g><g transform="translate(7, 0)"><path d="M40 145c-.617-30.836 28.319-95.205 39-108 7.923-9.491 29.695-17.45 54-17 24.305.45 46.862 5.812 55 16 12.324 15.428 37.869 74.079 38 109 .093 24.8-9.537 49.66-23 51-7.601.757-17.257-.226-28.859-1.406-5.309-.54-11.026-1.121-17.141-1.597v-12.386c18.92-8.988 32-28.272 32-50.611v-28.436c-10.509-5.79-19.455-12.78-26.909-19.882 3.356 6.24 7.194 11.908 11.522 16.191-30.582-8.58-51.724-26.152-64.393-39.93-5.825 11.08-16.257 27.282-32.22 39.625V130c0 22.339 13.08 41.623 32 50.611v13.135c-6.952.951-13.414 2.159-19.36 3.271h-.002c-10.849 2.028-19.983 3.735-27.254 2.983-14.222-1.469-21.888-30.204-22.384-55z" fill="#C93305"/></g><g transform="translate(56, 72)"><path d="M57.548 69.678c1.627-.975 3.207-1.922 4.84-2.546 5.19-1.983 14.82-1.42 21.612 2.165 6.792-3.586 16.422-4.148 21.612-2.165 1.633.624 3.213 1.57 4.84 2.546 4.125 2.473 8.551 5.126 14.91 3.15.369-.114.729.217.618.58-1.373 4.51-9.007 7.599-11.601 7.7-6.207.242-11.753-2.261-17.126-4.686-4.444-2.006-8.77-3.958-13.253-4.26-4.483.302-8.809 2.254-13.252 4.26-5.374 2.425-10.92 4.928-17.126 4.686-2.594-.101-10.228-3.19-11.602-7.7-.11-.363.25-.694.619-.58 6.358 1.976 10.784-.677 14.91-3.15z" fill="#ECDCBF"/></g></g></svg>