<svg xmlns:dc="http://purl.org/dc/elements/1.1/" xmlns:cc="http://creativecommons.org/ns#" xmlns:rdf="http://www.w3.org/1999/02/22-rdf-syntax-ns#" xmlns:svg="http://www.w3.org/2000/svg" xmlns="http://www.w3.org/2000/svg" viewBox="0 0 480 480" fill="none"><metadata><rdf:RDF><cc:Work><dc:format>image/svg+xml</dc:format><dc:type rdf:resource="http://purl.org/dc/dcmitype/StillImage"/><dc:title>Custom Avatar</dc:title><dc:creator><cc:Agent><dc:title>Ashley Seo</dc:title></cc:Agent></dc:creator><dc:source>https://www.figma.com/community/file/881358461963645496</dc:source><cc:license rdf:resource="https://creativecommons.org/licenses/by/4.0/"/></cc:Work><cc:License rdf:about="https://creativecommons.org/licenses/by/4.0/"><cc:permits rdf:resource="https://creativecommons.org/ns#Reproduction"/><cc:permits rdf:resource="https://creativecommons.org/ns#Distribution"/><cc:permits rdf:resource="https://creativecommons.org/ns#DerivativeWorks"/><cc:requires rdf:resource="https://creativecommons.org/ns#Notice"/><cc:requires rdf:resource="https://creativecommons.org/ns#Attribution"/></cc:License></rdf:RDF></metadata><mask id="avatarsRadiusMask"><rect width="480" height="480" rx="0" ry="0" x="0" y="0" fill="#fff"/></mask><g mask="url(#avatarsRadiusMask)"><g transform="matrix(.85775 0 0 .85427 52 47)"><path d="M263.989 38.62s131.387 20.593 121.424 208.128c-.036.695 15.192 10.822 16.384 11.904 10.619 9.62 19.527 21.94 23.423 36.351 13.872 51.319-35.724 104.196-75.83 118.231-14.981 5.242-30.815 7.787-46.681 8.249-103.139 3.009-239.69-62.655-246.703-190.893a172.056 172.056 0 0 1-.195-13.802c.621-24.349 6.488-48.063 15.33-70.082-.004.001 57.398-142.617 192.848-108.085Z" fill="rgba(255, 228, 192, 1)"/><path d="M388.739 248.727c-1.423 3.492-2.844 7.955-3.241 10.507-1.694 10.947 2.045 22.252 8.54 30.378 6.168 7.716 14.976 12.72 23.506 14.607 2.88.637 6.367.964 9.416 1.067-3.204-31.703-28.973-50.725-38.221-56.559ZM203.534 332.051c24.406-5.26 39.558-31.017 33.844-57.531-5.714-26.514-30.13-43.744-54.535-38.484-24.405 5.259-39.558 31.016-33.844 57.53 5.714 26.514 30.13 43.744 54.535 38.485Z" fill="#DC2400" style="mix-blend-mode:multiply" opacity=".1"/><path opacity=".1" d="M323.014 257.889s20.842-19.864 36.977-1.188Z" fill="#000"/><g><path d="M128.679 356.869c-69.38 34.83-132.35-52.512-112.18-101.609 12.866-31.317 50.38-33.752 72.118-5.146 12.829 16.883 23.209 38.464 29.103 59.108" fill="rgba(255, 228, 192, 1)"/><path opacity=".1" d="M71.534 278.927c8.927 9.099 16.103 22.593 24.923 30.12-1.63-12.595-4.232-26.045-10.34-37.396-6.201-11.528-17.479-21.025-28.962-20.242-14.23.971-25.947 17.573-27.454 32.626.9-9.008 18.99-15.104 25.894-14.251 10.812 20.413 14.998 60.644 14.998 60.644 9.007-22.775 5.36-40.689.941-51.501Z" fill="#000"/></g></g><g transform="matrix(.85472 0 0 .855 19 -17)"><path fill-rule="evenodd" clip-rule="evenodd" d="M317 384a4 4 0 0 1 4-4h92a4 4 0 0 1 0 8h-92a4 4 0 0 1-4-4Z" fill="#592125"/></g><g transform="matrix(.85472 0 0 .855 19 -17)"><g fill="#2A1200"><path d="M300.349 309.163c8.832-.16 17.674 3.022 25.496 7.773 4.691-4.793 6.946-12.983 5.183-21.539-2.472-12.006-11.824-20.057-20.887-17.979-9.064 2.078-14.402 13.498-11.926 25.504.461 2.254 1.232 4.311 2.134 6.241ZM416.11 310.627c1.302-2.877 2.067-6.392 1.993-10.23-.18-9.539-5.289-17.234-11.411-17.182-6.124.049-10.941 7.825-10.761 17.367.1 5.247 1.723 9.88 4.15 13.029 5.111-1.982 10.539-2.928 16.029-2.984Z"/></g><g fill="#71472D"><path d="M333.495 238.676c-13.683-2.225-28.346 2.887-38.189 13.256-3.173 3.343-4.061 9.273-.745 13.048 3.063 3.493 8.636 4.561 12.033.978a38.106 38.106 0 0 1 3.208-3.036c.351-.294 1.325-.816 1.631-1.249.171-.113.338-.226.513-.335a37.653 37.653 0 0 1 3.311-1.858 38.634 38.634 0 0 1 1.966-.902c.209-.087.419-.171.632-.256.582-.101 1.249-.416 1.78-.561a35.606 35.606 0 0 1 6.314-1.117c.67.003 1.339-.01 2.012.017 1.429.06 2.851.219 4.268.447 4.421.72 9.007-3.632 9.138-8.413.139-5.262-3.135-9.247-7.872-10.019ZM425.358 254.39c-4.968-6.836-12.27-11.322-20.146-12.625-2.126-.351-4.607.464-6.265 1.882-1.634 1.397-3.005 3.86-3.148 6.158-.147 2.387.324 4.948 1.815 6.825 1.511 1.903 3.407 3.111 5.715 3.496.378.062.745.168 1.122.25 1.11.383 2.183.856 3.23 1.411a23.874 23.874 0 0 1 3.349 2.746c.34.407.7.797 1.016 1.23 1.362 1.871 3.546 3.204 5.715 3.496 2.076.279 4.66-.388 6.264-1.886 1.663-1.55 2.996-3.699 3.148-6.158.153-2.451-.374-4.844-1.815-6.825Z"/></g></g><g transform="matrix(.85472 0 0 .85667 18 -15)"><g fill="rgba(213, 108, 12, 1)"><path d="M351 167c-32.5 45-106 137.5-207 170.5-6.833-11.667-19-23.9-41-23.5-27.5.5-37.5 20.5-37.5 20.5s-32 53.5 42 87.5c20.5 4 27 4 43.5-3 11.167 8.667 46.6 38.2 59 43-3.167 16.833-8.758 58.8-1.158 78-14.5 1.333-49.842 8.7-77.842-6.5-2.819-17.123-5.299-39.546-.885-48.095-5.269 8.61-14.773 28.264-14.773 39.595-16-5.5-51.6-20.8-66-38C27.01 382 19 127.5 245 106c19.833-2.333 70.4-.3 104 22.5C391 157 412 195 420 233c-17.167-8-55-32.4-69-66ZM433.5 525c-6.8-9.6-2.833-53.167 0-68-28 23.5-44.5 35-102 36.5 10 15 49 20.5 53.5 22.5l8-5.5v8c10.8 3.6 31.5 5.833 40.5 6.5Z"/></g><mask id="hairStraightHair-a" style="mask-type:alpha" maskUnits="userSpaceOnUse" x="245" y="105" width="176" height="128"><path d="M346.501 127.5c-33.6-22.8-81.667-23.833-101.501-21.5 5.477 29.667 22.372 92.8 69 108 13.672-17.718 29.992-34.209 37-47 14 33.6 51.834 58 69 66-8-38-31.499-77-73.499-105.5Z" fill="#E2BA87"/></mask><g mask="url(#hairStraightHair-a)"><path d="M338.932 161.814s-8.276-9.809-26.33-8.17c0 0 12.789-6.945 21.062-6.128 0 0-22.566-16.754-55.664-6.128 0 0 23.318-16.345 41.751-14.302 0 0-19.557-8.579-31.97-6.536 0 0 9.78-12.26 22.565-11.852 0 0-10.156-17.979-25.954-23.698 0 0 31.595 8.992 39.867 15.528 18.43 7.762 35.355 30.647 35.355 30.647-5.641-3.268-14.669-2.451-14.669-2.451 14.669 8.992 25.954 25.741 25.954 25.741-7.145-4.902-15.798-3.268-15.798-3.268 13.917 13.894 18.43 31.873 18.43 31.873-1.88-5.719-15.421-12.668-15.421-12.668 5.264 9.4 6.392 24.515 6.392 24.515l-11.285-14.711s-22.941 19.205-28.962 21.656c0 0 17.301-17.979 18.43-26.15 0 0-25.954 6.945-46.64 9.809.008-.009 28.97-22.073 42.887-23.707Z" fill="#000" fill-opacity=".15"/></g><g fill="#000" fill-opacity=".15"><path d="M281 211c-14 17.667-59.6 60.6-130 91 22.333-14 79.6-51.8 130-91ZM95 302c40.8-86.4 123.667-135.333 160-149-93.6 16-156 108.333-175.5 152.5 3.6-1.6 11.833-3 15.5-3.5ZM74 406.5c2 2.5 7.8 6.4 11 8-1.29 21.925-3.245 64.475-2.242 83.348.265 2.666.516 5.075.742 7.152-.337-1.626-.579-4.074-.742-7.152-1.882-18.939-4.46-50.816-3.758-68.348-3.667 13.333-9.9 17.8-5.5 73-4.667-35.667-11.9-74.4.5-96ZM408.5 476.5c2.8-1.2 7.5-4.5 9.5-6-3.6 6-2.167 36.167-1 50.5-2.4-2-4-9.5-4.5-13-1.6 5.2-4.667 5.5-4 13-4.4-10-.5-28.5 0-44.5ZM183.5 468.5c-4.8 43.6-2.5 55.5 1.5 74h-20c-7.2-35.2 11.167-52 18.5-74Z"/></g></g><g transform="matrix(.85472 0 0 .85667 14 -12)"/></g></svg>