<svg xmlns:dc="http://purl.org/dc/elements/1.1/" xmlns:cc="http://creativecommons.org/ns#" xmlns:rdf="http://www.w3.org/1999/02/22-rdf-syntax-ns#" xmlns:svg="http://www.w3.org/2000/svg" xmlns="http://www.w3.org/2000/svg" viewBox="0 0 480 480" fill="none"><metadata><rdf:RDF><cc:Work><dc:format>image/svg+xml</dc:format><dc:type rdf:resource="http://purl.org/dc/dcmitype/StillImage"/><dc:title>Custom Avatar</dc:title><dc:creator><cc:Agent><dc:title>Ashley Seo</dc:title></cc:Agent></dc:creator><dc:source>https://www.figma.com/community/file/881358461963645496</dc:source><cc:license rdf:resource="https://creativecommons.org/licenses/by/4.0/"/></cc:Work><cc:License rdf:about="https://creativecommons.org/licenses/by/4.0/"><cc:permits rdf:resource="https://creativecommons.org/ns#Reproduction"/><cc:permits rdf:resource="https://creativecommons.org/ns#Distribution"/><cc:permits rdf:resource="https://creativecommons.org/ns#DerivativeWorks"/><cc:requires rdf:resource="https://creativecommons.org/ns#Notice"/><cc:requires rdf:resource="https://creativecommons.org/ns#Attribution"/></cc:License></rdf:RDF></metadata><mask id="avatarsRadiusMask"><rect width="480" height="480" rx="0" ry="0" x="0" y="0" fill="#fff"/></mask><g mask="url(#avatarsRadiusMask)"><g transform="matrix(.85775 0 0 .85427 52 47)"><path d="M263.989 38.62s131.387 20.593 121.424 208.128c-.036.695 15.192 10.822 16.384 11.904 10.619 9.62 19.527 21.94 23.423 36.351 13.872 51.319-35.724 104.196-75.83 118.231-14.981 5.242-30.815 7.787-46.681 8.249-103.139 3.009-239.69-62.655-246.703-190.893a172.056 172.056 0 0 1-.195-13.802c.621-24.349 6.488-48.063 15.33-70.082-.004.001 57.398-142.617 192.848-108.085Z" fill="rgba(255, 228, 192, 1)"/><path d="M388.739 248.727c-1.423 3.492-2.844 7.955-3.241 10.507-1.694 10.947 2.045 22.252 8.54 30.378 6.168 7.716 14.976 12.72 23.506 14.607 2.88.637 6.367.964 9.416 1.067-3.204-31.703-28.973-50.725-38.221-56.559ZM203.534 332.051c24.406-5.26 39.558-31.017 33.844-57.531-5.714-26.514-30.13-43.744-54.535-38.484-24.405 5.259-39.558 31.016-33.844 57.53 5.714 26.514 30.13 43.744 54.535 38.485Z" fill="#DC2400" style="mix-blend-mode:multiply" opacity=".1"/><path opacity=".1" d="M323.014 257.889s20.842-19.864 36.977-1.188Z" fill="#000"/><g><path d="M128.679 356.869c-69.38 34.83-132.35-52.512-112.18-101.609 12.866-31.317 50.38-33.752 72.118-5.146 12.829 16.883 23.209 38.464 29.103 59.108" fill="rgba(255, 228, 192, 1)"/><path opacity=".1" d="M71.534 278.927c8.927 9.099 16.103 22.593 24.923 30.12-1.63-12.595-4.232-26.045-10.34-37.396-6.201-11.528-17.479-21.025-28.962-20.242-14.23.971-25.947 17.573-27.454 32.626.9-9.008 18.99-15.104 25.894-14.251 10.812 20.413 14.998 60.644 14.998 60.644 9.007-22.775 5.36-40.689.941-51.501Z" fill="#000"/></g></g><g transform="matrix(.85472 0 0 .855 19 -17)"><path d="M393.348 366.944c3.015 1.731 24.097-24.743 38.134-16.689 4.739 2.719 8.354 7.356 11.069 12.367 5.966 11.023 8.007 24.415 5.604 36.769-3.401 17.468-15.188 31.769-29.053 41.248-37.308 25.5-66.905 20.68-106.724 5.918-31.343-11.617-74.048-35.531-65.201-78.677 15.573-75.95 146.132-.958 146.171-.936Z" fill="#873C41"/><g fill="#fff"><path d="M318.892 366.521c-11.072 2.51-23.417 1.861-33.556-4.433-8.783-5.452-13.467-14.387-14.362-24.587 26.295-10.346 67.328 3.627 94.526 15.632L352.5 392c-12.847-2.11-25.973-9.366-29.261-22.14-.527-2.043-2.229-3.821-4.347-3.339ZM420.542 349.573C424.297 364.286 414.784 384.48 401 392c-13.936 8.746-31.337 6.972-37.5 1.803l11.17-36.467c11.36 5.401 18.668 9.597 18.677 9.603 2.292 1.319 15.046-13.655 27.195-17.366Z"/></g><path d="M400.293 443.788c-21.923-20.117-48.878-31.353-76.209-39.326-23.378-6.821-49.7-11.241-73.362-4.473 10.965 23.534 39.18 38.231 61.656 46.564 34.832 12.911 61.843 18.215 93.031 2.275-1.699-1.685-3.356-3.424-5.116-5.04Z" fill="#EE7E8B"/></g><g transform="matrix(.85472 0 0 .855 19 -17)"><g fill="#2A1200"><path d="M331.178 300.479c-.023 11.876-6.228 21.515-19.112 19.539-9.274-2.483-15.448-9.019-15.424-21.474.026-13.049 7.627-21.517 15.508-21.532 10.534-.02 19.051 11.591 19.028 23.467ZM419.013 300.265c-.015 7.96-3.619 16.509-12.842 15.526-7.739-.824-9.715-10.983-9.705-15.984.017-8.747 4.4-17.011 10.795-17.023 6.877-.013 11.768 9.52 11.752 17.481Z"/></g><g fill="#71472D"><path d="M336.947 244.202c-12.423-6.152-27.941-5.58-40.399 1.435-4.016 2.262-6.61 7.668-4.551 12.251 1.901 4.239 6.913 6.9 11.213 4.474a38.291 38.291 0 0 1 3.96-1.957c.422-.178 1.506-.39 1.926-.714.197-.058.389-.116.588-.169a37.477 37.477 0 0 1 3.712-.802 38.115 38.115 0 0 1 2.144-.283c.226-.023.451-.041.679-.059.586.074 1.317-.03 1.866-.012a35.827 35.827 0 0 1 5.853.678c.172.035.34.072.511.111.64.2 1.283.385 1.917.609a36.411 36.411 0 0 1 3.948 1.682c4.014 1.989 9.677-.822 11.21-5.352 1.68-4.989-.277-9.761-4.577-11.892ZM423.529 248.526c-7.428-4.032-15.949-4.938-23.619-2.723-2.07.598-3.959 2.401-4.845 4.395-.874 1.964-1.051 4.777-.191 6.913.895 2.218 2.423 4.327 4.576 5.379 2.183 1.067 4.415 1.342 6.664.696.368-.107.745-.169 1.12-.257a22.487 22.487 0 0 1 3.523-.117c1.422.215 2.822.561 4.205 1.037.482.221.974.418 1.446.672 2.034 1.103 4.58 1.366 6.663.696 1.994-.642 4.04-2.356 4.843-4.399.833-2.115 1.112-4.629.191-6.913-.917-2.278-2.424-4.212-4.576-5.379Z"/></g></g><g transform="matrix(.85472 0 0 .85667 18 -15)"><g fill="rgba(35, 141, 128, 1)"><path d="M347.001 169.003c8.002 36.798 49.666 54.33 69.499 58.497 6.8 23.6 8.5 71.833 8.5 92.5 18.8 10 30.167 24.833 33.5 31.5-3.083-12.334-1.472-18.564.974-28.02 1.124-4.344 2.424-9.37 3.526-15.98 3.11-18.66-16.283-42.848-26.607-55.724A329.113 329.113 0 0 1 433 247.5c-4.144-5.363-2.821-17.025-1.362-29.888 1.534-13.519 3.218-28.363-1.138-38.612-8.5-20-36-37.5-50.5-39-5.961-.617-9.387-4.36-14.307-9.735-7.049-7.702-17.164-18.754-42.193-28.765-32.741-13.097-64.71-3.443-78.046 3.69-97.32 8.35-133.041 107.978-134.882 113.112-.039.11-.063.177-.072.198-8.842 22.018-13.961 45.938-14.583 70.288-.118 4.595-.056 9.201.195 13.802 38.09 6.472 56.129 47.303 60.388 66.91 0 0 11.333.667 14-1.5 14-7.333 38.9-37.4 26.5-99-6-28-2-50.294 47-85 30.415-21.543 72.002-21.35 103.001-14.997ZM453 432c4-7.333 12.8-26.3 14-41.5 5.5 5.167 16.9 19.3 18.5 34.5 1.098 10.436-3.535 19.665-7.521 27.604-3.271 6.516-6.106 12.163-4.979 16.896 2 8.4 6.5 13.833 8.5 15.5-13.667 6.167-50.1 15-80.5-5 9.927-5 35.024-22.4 52-48Z"/></g><path d="M347 169c-8.5-19.5-41-59.4-103-63 .457-.265.942-.536 1.454-.81-97.321 8.35-133.041 107.978-134.882 113.112-.039.11-.063.177-.072.198-8.842 22.018-13.961 45.938-14.583 70.288-.118 4.595-.056 9.201.195 13.802 38.09 6.472 56.129 47.303 60.388 66.91 0 0 11.333.667 14-1.5 14-7.333 38.9-37.4 26.5-99-6-28-2-50.294 47-85 30.415-21.542 72.002-21.35 103.001-14.997L347 169Z" fill="#000" fill-opacity=".3"/><mask id="hairHalfShavedHead-a" style="mask-type:alpha" maskUnits="userSpaceOnUse" x="244" y="95" width="242" height="398"><g fill="#238D81"><path d="M244 106c62 3.6 94.5 43.5 103 63 8 36.8 49.667 54.333 69.5 58.5 6.8 23.6 8.5 71.833 8.5 92.5 18.8 10 30.167 24.833 33.5 31.5-4.5-18 1-23 4.5-44s-21.5-49-30-60 6-48.5-2.5-68.5-36-37.5-50.5-39-14-21.5-56.5-38.5c-34-13.6-67.167-2.667-79.5 4.5ZM467 390.5c-1.2 15.2-10 34.167-14 41.5-16.976 25.6-42.073 43-52 48 30.4 20 66.833 11.167 80.5 5-2-1.667-6.5-7.1-8.5-15.5-2.5-10.5 14.5-25.5 12.5-44.5-1.6-15.2-13-29.333-18.5-34.5Z"/></g></mask><g fill="#000" fill-opacity=".15" mask="url(#hairHalfShavedHead-a)"><path d="M377 194.5c-12.4-9.6-20.5-26-23-33 3.5 6.527 16 22.266 38 33 22 10.734 30.167 22.806 31.5 27.5-8-14.5-31-15.5-46.5-27.5ZM449 313.5c.8-8.8-2-20-3.5-24.5 0 4.833-.5 16.5-2.5 24.5s-7.167 14.333-9.5 16.5l15.5 10c-6.5-9-1-15.5 0-26.5ZM472 438.5c4.4-9.6 1.833-18.667 0-22 0 19.5-8 19-16 35s-2 32-7 29.5c-4-2-5.667-6.833-6-9-2 12.4.833 22.5 2.5 26 14 1.6 23.5-6.667 26.5-11-12.5-18.5-5.5-36.5 0-48.5Z" style="mix-blend-mode:multiply"/></g></g><g transform="matrix(.85472 0 0 .85667 14 -12)"/></g></svg>